<svg width="580" height="99" viewBox="0 0 580 99" fill="none" xmlns="http://www.w3.org/2000/svg">
<path opacity="0.25" fill-rule="evenodd" clip-rule="evenodd" d="M259.974 143.448L-59.0774 -5.09628L-59.5255 -5.30525L259.826 -153.987L259.976 -154.059L579.026 -5.51422L579.474 -5.30525L260.123 143.379L259.974 143.448ZM245.386 136.1L259.974 142.891L274.561 136.1L259.974 129.309L245.386 136.1ZM230.199 129.029L244.787 135.821L259.375 129.029L244.789 122.238L230.199 129.029ZM260.57 129.029L275.16 135.82L289.747 129.029L275.16 122.238L260.572 129.029H260.57ZM275.756 121.958L290.346 128.752L304.932 121.96L290.346 115.167L275.756 121.958ZM245.384 121.958L259.974 128.752L274.561 121.96L259.974 115.167L245.386 121.958H245.384ZM215.014 121.958L229.602 128.752L244.189 121.96L229.602 115.167L215.015 121.959L215.014 121.958ZM290.944 114.888L305.532 121.681L320.118 114.889L305.531 108.097L290.944 114.888ZM260.571 114.888L275.159 121.681L289.747 114.888L275.159 108.097L260.571 114.888ZM230.2 114.888L244.788 121.68L259.375 114.887L244.789 108.096L230.199 114.889L230.2 114.888ZM199.829 114.888L214.416 121.68L229.003 114.888L214.416 108.096L199.829 114.888ZM306.129 107.819L320.717 114.61L335.304 107.819L320.717 101.026L306.129 107.819ZM275.758 107.819L290.346 114.61L304.932 107.819L290.346 101.027L275.758 107.819ZM245.387 107.819L259.974 114.61L274.561 107.819L259.974 101.027L245.387 107.819ZM215.015 107.819L229.602 114.61L244.189 107.819L229.602 101.027L215.015 107.819ZM184.643 107.819L199.231 114.61L213.818 107.819L199.232 101.027L184.643 107.819ZM169.458 100.75L184.046 107.54L198.633 100.748L184.046 93.9562L169.458 100.75ZM321.315 100.75L335.903 107.541L350.491 100.75L335.903 93.9576L321.315 100.75ZM290.944 100.75L305.532 107.541L320.119 100.75L305.532 93.9576L290.944 100.75ZM260.573 100.75L275.16 107.541L289.747 100.75L275.16 93.9562L260.573 100.75ZM230.201 100.75L244.789 107.541L259.376 100.75L244.789 93.9562L230.201 100.75ZM199.829 100.75L214.416 107.541L229.004 100.75L214.417 93.9576L199.829 100.75ZM184.643 93.6795L199.232 100.472L213.818 93.6795L199.232 86.8859L184.643 93.6795ZM154.271 93.6795L168.859 100.472L183.447 93.6795L168.859 86.8859L154.273 93.678L154.271 93.6795ZM336.502 93.6795L351.089 100.471L365.676 93.678L351.089 86.8859L336.502 93.6795ZM306.129 93.6795L320.717 100.471L335.304 93.6798L320.717 86.8859L306.129 93.6795ZM275.758 93.6795L290.346 100.471L304.933 93.6798L290.346 86.8859L275.758 93.6795ZM245.387 93.6795L259.974 100.471L274.561 93.6798L259.974 86.8859L245.387 93.677V93.6795ZM215.015 93.6795L229.602 100.471L244.189 93.6798L229.602 86.8859L215.015 93.6795ZM290.944 86.6088L305.532 93.401L320.119 86.6088L305.532 79.8175L290.944 86.6088ZM260.572 86.6088L275.16 93.4002L289.747 86.6081L275.16 79.816L260.572 86.6088ZM230.202 86.6088L244.789 93.4002L259.375 86.6088L244.789 79.8167L230.202 86.6088ZM199.829 86.6088L214.417 93.4002L229.004 86.6088L214.417 79.8167L199.829 86.6088ZM169.458 86.6088L184.046 93.4002L198.633 86.6088L184.049 79.8175L169.46 86.6081L169.458 86.6088ZM139.086 86.6088L153.673 93.4002L168.261 86.6088L153.674 79.8175L139.086 86.6081V86.6088ZM351.687 86.6088L366.275 93.4002L380.861 86.6088L366.275 79.816L351.687 86.6088ZM321.314 86.6088L335.902 93.4002L350.49 86.6088L335.902 79.8171L321.314 86.6088ZM154.273 79.5379L168.861 86.3293L183.447 79.5379L168.859 72.7454L154.273 79.5379ZM123.902 79.5379L138.49 86.3293L153.075 79.5379L138.489 72.7454L123.9 79.5379H123.902ZM366.875 79.5379L381.463 86.3285L396.049 79.5379L381.463 72.7454L366.874 79.5379H366.875ZM336.504 79.5379L351.091 86.33L365.676 79.5379L351.089 72.7454L336.502 79.5379H336.504ZM306.132 79.5379L320.719 86.3285L335.304 79.5379L320.718 72.7454L306.13 79.5379H306.132ZM275.76 79.5379L290.348 86.3285L304.933 79.5379L290.346 72.7454L275.758 79.5379H275.76ZM245.388 79.5379L259.974 86.3289L274.561 79.5379L259.974 72.7454L245.387 79.5379H245.388ZM215.017 79.5379L229.604 86.3285L244.189 79.5379L229.602 72.7454L215.015 79.5379H215.017ZM184.646 79.5379L199.234 86.3285L213.819 79.5379L199.232 72.7454L184.644 79.5379H184.646ZM290.946 72.4669L305.534 79.2594L320.121 72.4669L305.534 65.6751L290.946 72.4669ZM260.574 72.4669L275.161 79.2594L289.749 72.4669L275.162 65.6755L260.574 72.4669ZM230.202 72.4669L244.791 79.2594L259.378 72.4669L244.789 65.6759L230.202 72.4669ZM199.832 72.4669L214.419 79.2594L229.006 72.4669L214.419 65.6755L199.832 72.4669ZM169.46 72.4669L184.048 79.2594L198.634 72.4669L184.048 65.6755L169.46 72.4669ZM139.088 72.4669L153.675 79.2594L168.263 72.4669L153.674 65.6759L139.086 72.4672L139.088 72.4669ZM108.716 72.4669L123.304 79.2594L137.892 72.4669L123.304 65.6755L108.716 72.4669ZM382.06 72.4669L396.648 79.2583L411.235 72.4665L396.648 65.6751L382.06 72.4669ZM351.689 72.4669L366.277 79.2583L380.864 72.4669L366.275 65.6755L351.689 72.4669ZM321.317 72.4669L335.905 79.2583L350.492 72.4669L335.905 65.6755L321.317 72.4669ZM366.874 65.3966L381.461 72.1898L396.048 65.3977L381.461 58.6049L366.874 65.397V65.3966ZM336.503 65.3966L351.089 72.1898L365.676 65.3966L351.089 58.6049L336.502 65.3956L336.503 65.3966ZM306.131 65.3966L320.718 72.1898L335.305 65.3977L320.718 58.6049L306.13 65.3956L306.131 65.3966ZM275.759 65.3966L290.346 72.1898L304.933 65.3977L290.346 58.6049L275.758 65.3956L275.759 65.3966ZM245.388 65.3966L259.974 72.1898L274.561 65.3977L259.974 58.6049L245.387 65.3956L245.388 65.3966ZM215.016 65.3966L229.602 72.1898L244.189 65.3977L229.603 58.6049L215.015 65.3973L215.016 65.3966ZM184.645 65.3966L199.232 72.1898L213.819 65.3977L199.232 58.6049L184.644 65.3956L184.645 65.3966ZM154.272 65.3966L168.859 72.1898L183.447 65.3977L168.859 58.6049L154.273 65.3973L154.272 65.3966ZM123.901 65.3966L138.489 72.1898L153.075 65.3973L138.489 58.6049L123.901 65.3966ZM93.5296 65.3966L108.116 72.1898L122.704 65.3984L108.117 58.6049L93.5296 65.3966ZM397.246 65.3966L411.834 72.188L426.42 65.3966L411.834 58.606L397.246 65.3966ZM199.829 58.3271L214.416 65.1196L229.004 58.3271L214.416 51.5353L199.829 58.3271ZM169.458 58.3271L184.046 65.1196L198.632 58.3271L184.046 51.5353L169.458 58.3271H169.458ZM139.086 58.3271L153.674 65.1196L168.261 58.3271L153.674 51.5353L139.086 58.3271ZM108.714 58.3271L123.302 65.1196L137.89 58.3271L123.302 51.5353L108.714 58.3271ZM78.3431 58.3271L92.9301 65.1196L107.518 58.3271L92.9301 51.5353L78.3431 58.3271ZM412.43 58.3271L427.018 65.1188L441.605 58.3271L427.018 51.535L412.43 58.3271ZM382.059 58.3271L396.646 65.1188L411.232 58.3271L396.646 51.535L382.059 58.3271ZM351.687 58.3271L366.274 65.1185L380.862 58.3267L366.275 51.5353L351.687 58.3271ZM321.315 58.3271L335.903 65.1185L350.49 58.3271L335.903 51.5353L321.315 58.3271ZM290.945 58.3271L305.532 65.1185L320.119 58.3271L305.532 51.5353L290.945 58.3271ZM260.572 58.3271L275.16 65.1185L289.747 58.3271L275.16 51.5353L260.572 58.3271ZM230.201 58.3271L244.789 65.1185L259.376 58.3271L244.789 51.5353L230.201 58.3271ZM336.501 51.2568L351.088 58.0489L365.676 51.2568L351.089 44.4654L336.501 51.2568ZM306.13 51.2568L320.718 58.0489L335.305 51.2568L320.718 44.4654L306.13 51.2568ZM275.758 51.2568L290.346 58.0489L304.933 51.2568L290.346 44.4654L275.758 51.2568ZM245.387 51.2568L259.974 58.0486L274.562 51.2568L259.974 44.4651L245.388 51.2568H245.387ZM215.015 51.2568L229.602 58.0489L244.19 51.2568L229.602 44.4654L215.015 51.2568ZM184.643 51.2568L199.231 58.0489L213.818 51.2568L199.231 44.4654L184.643 51.2568ZM154.271 51.2568L168.859 58.0489L183.446 51.2568L168.859 44.4654L154.273 51.2568H154.271ZM123.9 51.2568L138.489 58.0482L153.075 51.2568L138.488 44.4654L123.9 51.2568ZM93.5283 51.2568L108.116 58.0482L122.703 51.2568L108.116 44.4654L93.5283 51.2568ZM63.1571 51.2568L77.745 58.0482L92.3319 51.2568L77.7458 44.4654L63.1571 51.2568ZM427.615 51.2568L442.203 58.0482L456.791 51.2568L442.203 44.4654L427.615 51.2568ZM397.245 51.2568L411.833 58.0482L426.419 51.2568L411.833 44.4654L397.245 51.2568ZM366.872 51.2568L381.46 58.0482L396.047 51.2568L381.46 44.4654L366.872 51.2568ZM108.714 44.1873L123.302 50.979L137.89 44.1873L123.302 37.3948L108.714 44.1873ZM78.3431 44.1873L92.9301 50.979L107.518 44.1873L92.931 37.3948L78.3431 44.1873ZM47.9707 44.1873L62.5585 50.979L77.1459 44.1873L62.5585 37.3948L47.9707 44.1873ZM442.802 44.1873L457.389 50.979L471.976 44.1873L457.389 37.3959L442.802 44.1873ZM412.43 44.1873L427.018 50.979L441.605 44.1873L427.018 37.3959L412.43 44.1873ZM382.059 44.1873L396.646 50.979L411.233 44.1873L396.647 37.3959L382.059 44.1873ZM351.687 44.1873L366.275 50.979L380.862 44.1873L366.275 37.3959L351.687 44.1873ZM321.315 44.1873L335.903 50.979L350.49 44.1873L335.903 37.3959L321.315 44.1873ZM290.944 44.1873L305.532 50.979L320.119 44.1873L305.532 37.3959L290.944 44.1873ZM260.572 44.1873L275.16 50.9783L289.747 44.1866L275.16 37.3952L260.572 44.1873ZM230.201 44.1873L244.789 50.9783L259.376 44.1873L244.789 37.3948L230.201 44.1873ZM199.829 44.1873L214.416 50.9783L229.004 44.1873L214.416 37.3948L199.829 44.1873ZM169.457 44.1873L184.046 50.9783L198.632 44.1873L184.046 37.3948L169.457 44.1873ZM139.087 44.1873L153.674 50.9783L168.261 44.1873L153.674 37.3948L139.087 44.1873ZM93.5283 37.1163L108.116 43.9088L122.703 37.1167L108.117 30.3238L93.5283 37.1163ZM63.1571 37.1163L77.745 43.9088L92.3319 37.1167L77.745 30.3238L63.1571 37.1163ZM366.873 37.1163L381.461 43.9088L396.047 37.1174L381.46 30.3238L366.874 37.1163H366.873ZM306.13 37.1163L320.718 43.9088L335.305 37.1174L320.718 30.3238L306.13 37.1163ZM275.758 37.1163L290.346 43.9088L304.933 37.1174L290.346 30.3238L275.758 37.1163ZM245.387 37.1163L259.974 43.9088L274.561 37.1174L259.974 30.3238L245.387 37.1163ZM215.015 37.1163L229.602 43.9088L244.19 37.1174L229.602 30.3238L215.015 37.1163ZM184.643 37.1163L199.231 43.9088L213.818 37.1174L199.231 30.3238L184.643 37.1163ZM154.271 37.1163L168.859 43.9088L183.446 37.1174L168.859 30.3238L154.273 37.1163H154.271ZM123.901 37.1163L138.489 43.9088L153.075 37.1163L138.489 30.3238L123.901 37.1163ZM32.7855 37.1163L47.3738 43.9088L61.9617 37.1174L47.3738 30.3238L32.7855 37.1163ZM457.987 37.1163L472.575 43.9073L487.162 37.1163L472.575 30.3238L457.987 37.1163ZM427.614 37.1163L442.203 43.9073L456.79 37.1163L442.203 30.3238L427.615 37.1152L427.614 37.1163ZM397.244 37.1163L411.832 43.907L426.418 37.116L411.832 30.3246L397.244 37.1163ZM336.501 37.1163L351.088 43.9073L365.676 37.1163L351.088 30.3238L336.502 37.1152L336.501 37.1163ZM442.801 30.0468L457.389 36.8382L471.976 30.0468L457.389 23.2547L442.801 30.0468ZM412.431 30.0468L427.017 36.8382L441.604 30.0468L427.017 23.2547L412.431 30.0468H412.431ZM382.058 30.0468L396.645 36.8382L411.233 30.0468L396.645 23.2547L382.058 30.0468ZM351.686 30.0468L366.274 36.8382L380.861 30.0468L366.274 23.2547L351.686 30.0468ZM321.314 30.0468L335.902 36.8382L350.489 30.0468L335.902 23.2547L321.314 30.0468ZM290.944 30.0468L305.531 36.8382L320.119 30.0468L305.532 23.2547L290.944 30.0468ZM260.571 30.0468L275.159 36.8382L289.746 30.0468L275.159 23.2547L260.571 30.0468ZM230.2 30.0468L244.788 36.8382L259.375 30.0468L244.788 23.2547L230.2 30.0468ZM199.828 30.0468L214.416 36.8382L229.003 30.0468L214.416 23.2547L199.828 30.0468ZM169.457 30.0468L184.045 36.8374L198.631 30.0461L184.045 23.2547L169.457 30.0468H169.457ZM139.085 30.0468L153.673 36.8374L168.26 30.0468L153.673 23.2543L139.085 30.0468ZM108.715 30.0468L123.301 36.8374L137.889 30.0461L123.301 23.2547L108.714 30.0468H108.715ZM78.3423 30.0468L92.9292 36.8374L107.517 30.0461L92.9301 23.2539L78.3423 30.0464V30.0468ZM47.9707 30.0468L62.5567 36.8374L77.145 30.0461L62.5576 23.2547L47.9707 30.0468ZM17.5986 30.0468L32.1865 36.8374L46.7734 30.0468L32.1865 23.2543L17.5986 30.0468ZM473.175 30.0468L487.762 36.8374L502.348 30.0453L487.762 23.2539L473.175 30.0464V30.0468ZM2.41397 22.9758L17.0023 29.7683L31.5896 22.9758L17.0023 16.1844L2.41397 22.9758ZM275.758 22.9758L290.346 29.7675L304.934 22.9758L290.346 16.1844L275.759 22.9758H275.758ZM215.015 22.9758L229.603 29.7675L244.19 22.9758L229.603 16.1844L215.015 22.9758ZM184.644 22.9758L199.232 29.7675L213.82 22.9758L199.232 16.1844L184.643 22.9758H184.644ZM154.271 22.9758L168.859 29.7675L183.447 22.9758L168.859 16.1844L154.273 22.9758H154.271ZM123.901 22.9758L138.489 29.7675L153.075 22.9758L138.489 16.1848L123.901 22.9758ZM93.5287 22.9758L108.117 29.7675L122.704 22.9758L108.117 16.1844L93.5287 22.9758ZM63.1576 22.9758L77.7454 29.7675L92.3324 22.9758L77.7463 16.1844L63.1576 22.9758ZM32.786 22.9758L47.3738 29.7675L61.9608 22.9758L47.3738 16.1848L32.786 22.9758ZM488.362 22.9758L502.949 29.7679L517.537 22.9754L502.949 16.1844L488.362 22.9758ZM457.99 22.9758L472.578 29.7679L487.166 22.9754L472.578 16.1844L457.99 22.9758ZM427.619 22.9758L442.206 29.7672L456.793 22.9747L442.206 16.1844L427.619 22.9758ZM397.247 22.9758L411.835 29.7672L426.421 22.9758L411.835 16.1844L397.247 22.9758ZM366.875 22.9758L381.463 29.7672L396.049 22.9758L381.463 16.1844L366.875 22.9758ZM336.504 22.9758L351.091 29.7672L365.678 22.9758L351.091 16.1844L336.504 22.9758ZM306.132 22.9758L320.72 29.7672L335.307 22.9758L320.72 16.1844L306.132 22.9758ZM245.389 22.9758L259.977 29.7672L274.564 22.9758L259.977 16.1844L245.389 22.9758ZM290.948 15.9055L305.536 22.6976L320.123 15.9055L305.536 9.11414L290.948 15.9055ZM260.576 15.9055L275.164 22.6976L289.75 15.9055L275.163 9.11414L260.576 15.9055ZM230.205 15.9055L244.792 22.6976L259.38 15.9055L244.792 9.11414L230.205 15.9055ZM199.833 15.9055L214.42 22.6976L229.008 15.9055L214.421 9.11414L199.833 15.9055ZM169.461 15.9055L184.049 22.6976L198.635 15.9055L184.049 9.11414L169.461 15.9055ZM139.089 15.9055L153.677 22.6976L168.264 15.9055L153.677 9.11414L139.089 15.9055ZM108.718 15.9055L123.306 22.6976L137.893 15.9055L123.306 9.11414L108.718 15.9055ZM78.3467 15.9055L92.9336 22.6976L107.521 15.9055L92.9345 9.11414L78.3467 15.9055ZM47.9751 15.9055L62.5621 22.6976L77.1495 15.9055L62.5634 9.11414L47.9751 15.9055ZM17.6031 15.9055L32.1909 22.6976L46.7788 15.9055L32.1909 9.11414L17.6031 15.9055ZM-12.7694 15.9055L1.81934 22.6976L16.4063 15.9055L1.81934 9.11414L-12.7694 15.9055ZM503.547 15.9055L518.135 22.698L532.723 15.9055L518.136 9.11377L503.547 15.9055ZM473.175 15.9055L487.764 22.698L502.351 15.9055L487.764 9.11377L473.175 15.9055ZM442.804 15.9055L457.392 22.698L471.979 15.9055L457.393 9.11377L442.804 15.9055ZM412.434 15.9055L427.021 22.698L441.608 15.9062L427.021 9.11485L412.435 15.9055H412.434ZM382.061 15.9055L396.649 22.6969L411.237 15.9055L396.649 9.11414L382.062 15.9055H382.061ZM351.69 15.9055L366.278 22.6969L380.865 15.9055L366.278 9.11414L351.69 15.9055ZM321.318 15.9055L335.905 22.6969L350.493 15.9055L335.905 9.11414L321.318 15.9055ZM306.132 8.83562L320.719 15.6277L335.306 8.83598L320.719 2.0428L306.132 8.83562ZM245.39 8.83562L259.974 15.6277L274.561 8.83598L259.974 2.0428L245.39 8.83562ZM184.647 8.83562L199.233 15.6277L213.82 8.83598L199.233 2.0428L184.647 8.83562ZM154.274 8.83562L168.86 15.6277L183.448 8.83598L168.861 2.0428L154.274 8.83562ZM123.903 8.83562L138.49 15.6277L153.075 8.83562L138.49 2.0428L123.903 8.83562ZM93.5309 8.83562L108.117 15.6277L122.704 8.83598L108.118 2.0428L93.5309 8.83562ZM63.1598 8.83562L77.7467 15.6277L92.3341 8.83598L77.7467 2.0428L63.1598 8.83562ZM32.7882 8.83562L47.3738 15.6277L61.9608 8.83598L47.3738 2.0428L32.7882 8.83562ZM2.41619 8.83562L17.0031 15.6277L31.5905 8.83598L17.0031 2.0428L2.41619 8.83562ZM-27.9554 8.83562L-13.3689 15.6277L1.21895 8.83598L-13.3689 2.0428L-27.9567 8.83562H-27.9554ZM518.736 8.83562L533.323 15.627L547.91 8.83562L533.323 2.04317L518.736 8.83562ZM488.363 8.83562L502.95 15.627L517.538 8.83562L502.95 2.04317L488.363 8.83562ZM457.991 8.83562L472.579 15.627L487.167 8.83562L472.579 2.04317L457.991 8.83562ZM427.621 8.83562L442.207 15.627L456.795 8.83562L442.207 2.04317L427.621 8.83562ZM397.249 8.83562L411.836 15.627L426.423 8.83562L411.836 2.04317L397.249 8.83562ZM366.876 8.83562L381.463 15.6277L396.05 8.83635L381.463 2.0428L366.874 8.83562H366.876ZM336.506 8.83562L351.091 15.6277L365.678 8.83635L351.091 2.0428L336.504 8.83492L336.506 8.83562ZM275.762 8.83562L290.348 15.6277L304.936 8.83635L290.348 2.0428L275.762 8.83562ZM215.018 8.83562L229.604 15.6277L244.192 8.83635L229.606 2.0428L215.018 8.83562ZM199.833 1.76537L214.421 8.55748L229.008 1.76537L214.421 -5.02638L199.833 1.76537ZM169.461 1.76537L184.049 8.55748L198.635 1.76537L184.049 -5.02638L169.461 1.76537ZM139.089 1.76537L153.677 8.55748L168.265 1.76537L153.677 -5.02638L139.088 1.76537H139.089ZM108.718 1.76537L123.306 8.55748L137.893 1.76537L123.306 -5.02638L108.718 1.76537ZM78.3467 1.76537L92.9345 8.55748L107.521 1.76537L92.9345 -5.02638L78.3467 1.76537ZM47.9751 1.76537L62.563 8.55748L77.1495 1.76537L62.5625 -5.02638L47.9751 1.76537ZM17.6031 1.76537L32.1909 8.55748L46.7788 1.76537L32.1909 -5.02638L17.6031 1.76537ZM-12.7694 1.76537L1.81934 8.55748L16.4063 1.76537L1.81934 -5.02638L-12.7694 1.76537ZM-43.1396 1.76537L-28.5518 8.55748L-13.9648 1.76537L-28.5518 -5.02638L-43.1396 1.76537ZM533.922 1.76537L548.509 8.55783L563.097 1.76537L548.509 -5.02638L533.922 1.76537ZM503.549 1.76537L518.138 8.55783L532.724 1.76537L518.137 -5.02638L503.549 1.76465V1.76537ZM473.179 1.76537L487.766 8.55783L502.353 1.76537L487.766 -5.02638L473.179 1.76537H473.179ZM442.806 1.76537L457.394 8.55783L471.982 1.76537L457.394 -5.02638L442.806 1.76537ZM412.436 1.76537L427.023 8.55783L441.61 1.76537L427.023 -5.02638L412.436 1.76537H412.436ZM382.063 1.76537L396.649 8.55713L411.237 1.76465L396.649 -5.0271L382.062 1.76465L382.063 1.76537ZM351.692 1.76537L366.28 8.55676L380.867 1.76465L366.28 -5.02638L351.692 1.76537ZM321.32 1.76537L335.908 8.55676L350.495 1.76537L335.907 -5.02638L321.32 1.76537ZM290.949 1.76537L305.537 8.55676L320.124 1.76537L305.537 -5.02638L290.949 1.76537ZM260.577 1.76537L275.164 8.55783L289.75 1.76537L275.163 -5.02638L260.575 1.76465L260.577 1.76537ZM230.205 1.76537L244.793 8.55676L259.381 1.76465L244.793 -5.02638L230.205 1.76537ZM215.018 -5.30525L229.606 1.4865L244.193 -5.30525L229.606 -12.0966L215.018 -5.30525ZM184.647 -5.30525L199.234 1.4865L213.824 -5.30525L199.237 -12.0966L184.647 -5.30525ZM154.273 -5.30525L168.862 1.4865L183.45 -5.30525L168.862 -12.0966L154.273 -5.30525ZM123.903 -5.30525L138.491 1.4865L153.075 -5.30525L138.489 -12.0959L123.901 -5.30525H123.903ZM93.5305 -5.30525L108.118 1.4865L122.706 -5.30525L108.12 -12.0966L93.5305 -5.30525ZM63.1593 -5.30525L77.7485 1.48723L92.3359 -5.30525L77.7485 -12.0959L63.1593 -5.30525ZM32.7878 -5.30525L47.3738 1.48723L61.9608 -5.30525L47.3738 -12.0959L32.786 -5.30525H32.7878ZM2.41574 -5.30525L17.004 1.4865L31.5928 -5.30525L17.0058 -12.0966L2.41663 -5.30525H2.41574ZM-27.9558 -5.30525L-13.368 1.4865L1.22073 -5.30525L-13.3671 -12.0966L-27.955 -5.30525H-27.9558ZM-58.3261 -5.30525L-43.7378 1.48723L-29.1509 -5.30525L-43.7378 -12.0959L-58.3274 -5.30525H-58.3261ZM549.105 -5.30525L563.693 1.48615L578.276 -5.30525L563.689 -12.0966L549.104 -5.30525H549.105ZM518.733 -5.30525L533.324 1.48615L547.906 -5.30525L533.319 -12.0966L518.73 -5.30525H518.733ZM488.363 -5.30525L502.95 1.48615L517.536 -5.30525L502.949 -12.0966L488.359 -5.30525H488.363ZM457.991 -5.30525L472.579 1.48615L487.166 -5.30525L472.578 -12.0966L457.989 -5.30525H457.991ZM427.62 -5.30525L442.207 1.48615L456.791 -5.30525L442.203 -12.0966L427.619 -5.30525H427.62ZM397.248 -5.30525L411.836 1.48615L426.421 -5.30525L411.834 -12.0966L397.244 -5.30525H397.248ZM366.877 -5.30525L381.464 1.48615L396.05 -5.30525L381.463 -12.0966L366.874 -5.30525H366.877ZM336.505 -5.30525L351.092 1.48615L365.676 -5.30525L351.09 -12.0966L336.502 -5.30525H336.505ZM306.133 -5.30525L320.724 1.48615L335.306 -5.30525L320.718 -12.0959L306.13 -5.30525H306.133ZM275.761 -5.30525L290.349 1.48615L304.937 -5.30525L290.35 -12.0974L275.758 -5.30525H275.761ZM245.39 -5.30525L259.978 1.48543L274.562 -5.30525L259.974 -12.0959L245.388 -5.30525H245.39ZM108.718 -12.3748L123.306 -5.5834L137.894 -12.3748L123.306 -19.1665L108.718 -12.3748ZM78.3471 -12.3748L92.935 -5.5834L107.523 -12.3748L92.935 -19.1665L78.3471 -12.3748ZM47.9756 -12.3748L62.5634 -5.5834L77.1495 -12.3748L62.5625 -19.1665L47.9756 -12.3748ZM17.6044 -12.3748L32.1923 -5.5834L46.7792 -12.3748L32.1923 -19.1665L17.6044 -12.3748ZM-12.7689 -12.3748L1.81979 -5.5834L16.4067 -12.3748L1.82067 -19.1665L-12.7689 -12.3748ZM-43.1392 -12.3748L-28.5518 -5.5834L-13.964 -12.3748L-28.5518 -19.1665L-43.1392 -12.3748ZM533.922 -12.3748L548.509 -5.58376L563.097 -12.3748L548.509 -19.1673L533.922 -12.3748ZM503.549 -12.3748L518.137 -5.58376L532.725 -12.3748L518.138 -19.1673L503.549 -12.3748ZM473.179 -12.3748L487.766 -5.58376L502.354 -12.3748L487.766 -19.1673L473.179 -12.3748H473.179ZM442.807 -12.3748L457.395 -5.58376L471.982 -12.3748L457.395 -19.1673L442.807 -12.3748ZM412.435 -12.3748L427.024 -5.58376L441.611 -12.3748L427.024 -19.1673L412.435 -12.3748ZM382.063 -12.3748L396.649 -5.58412L411.237 -12.3752L396.65 -19.1676L382.062 -12.3752L382.063 -12.3748ZM351.692 -12.3748L366.281 -5.58376L380.868 -12.3748L366.28 -19.1673L351.692 -12.3748ZM321.321 -12.3748L335.909 -5.58376L350.495 -12.3748L335.909 -19.1673L321.321 -12.3748ZM290.949 -12.3748L305.537 -5.58376L320.124 -12.3748L305.537 -19.1673L290.948 -12.3752L290.949 -12.3748ZM260.577 -12.3748L275.165 -5.58412L289.75 -12.3752L275.163 -19.1665L260.575 -12.3748H260.577ZM230.206 -12.3748L244.794 -5.58376L259.382 -12.3744L244.794 -19.1665L230.206 -12.3748ZM199.834 -12.3748L214.422 -5.58412L229.009 -12.3752L214.422 -19.1665L199.834 -12.3748ZM169.463 -12.3748L184.049 -5.58412L198.635 -12.3748L184.049 -19.1665L169.463 -12.3748ZM139.092 -12.3748L153.679 -5.58412L168.266 -12.3752L153.679 -19.1665L139.092 -12.3748ZM93.5283 -19.4447L108.117 -12.6533L122.704 -19.4447L108.117 -26.2382L93.5283 -19.4447ZM63.1571 -19.4447L77.7454 -12.6533L92.3328 -19.4447L77.7454 -26.2382L63.1571 -19.4447ZM-27.9572 -19.4447L-13.3693 -12.6533L1.21762 -19.4447L-13.3684 -26.2382L-27.9572 -19.4447ZM518.734 -19.4447L533.321 -12.6526L547.908 -19.4447L533.321 -26.2382L518.734 -19.4447ZM488.361 -19.4447L502.948 -12.6526L517.536 -19.4447L502.949 -26.2382L488.361 -19.4447ZM457.989 -19.4447L472.577 -12.6526L487.165 -19.4447L472.577 -26.2382L457.989 -19.4447ZM427.619 -19.4447L442.206 -12.6526L456.794 -19.4447L442.206 -26.2382L427.619 -19.4447ZM397.247 -19.4447L411.835 -12.6533L426.422 -19.4454L411.835 -26.2382L397.247 -19.4447ZM366.876 -19.4447L381.463 -12.6533L396.051 -19.4454L381.463 -26.2382L366.874 -19.4461L366.876 -19.4447ZM336.504 -19.4447L351.091 -12.6533L365.678 -19.4454L351.091 -26.2382L336.504 -19.4447ZM306.132 -19.4447L320.719 -12.6533L335.307 -19.4454L320.719 -26.2382L306.132 -19.4447ZM275.76 -19.4447L290.347 -12.6533L304.935 -19.4454L290.348 -26.2382L275.76 -19.4447ZM245.389 -19.4447L259.977 -12.6533L274.564 -19.4454L259.977 -26.2382L245.389 -19.4447ZM215.016 -19.4447L229.605 -12.6533L244.191 -19.4454L229.605 -26.2382L215.016 -19.4447ZM184.645 -19.4447L199.233 -12.6533L213.821 -19.4454L199.233 -26.2382L184.645 -19.4447ZM154.274 -19.4447L168.861 -12.6533L183.448 -19.4454L168.861 -26.2382L154.273 -19.4447H154.274ZM123.903 -19.4447L138.49 -12.6533L153.078 -19.444L138.49 -26.2382L123.903 -19.4447ZM32.7873 -19.4447L47.3738 -12.6533L61.9608 -19.444L47.3738 -26.2382L32.7869 -19.4461L32.7873 -19.4447ZM2.41574 -19.4447L17.0045 -12.6533L31.5914 -19.444L17.0045 -26.2382L2.41574 -19.4447ZM78.3449 -26.5153L92.9328 -19.7236L107.521 -26.516L92.9328 -33.3074L78.3449 -26.5153ZM47.9724 -26.5153L62.5603 -19.7236L77.1495 -26.5153L62.5603 -33.3067L47.9724 -26.5153ZM-12.7703 -26.5153L1.81846 -19.7236L16.4054 -26.5153L1.81846 -33.3067L-12.7703 -26.5153ZM503.546 -26.5153L518.135 -19.7232L532.722 -26.5157L518.135 -33.3067L503.546 -26.5153ZM473.176 -26.5153L487.763 -19.7232L502.351 -26.5157L487.763 -33.3067L473.176 -26.5153H473.176ZM442.803 -26.5153L457.391 -19.7232L471.979 -26.5157L457.391 -33.3067L442.803 -26.5153ZM412.433 -26.5153L427.021 -19.7232L441.608 -26.5157L427.021 -33.3067L412.434 -26.5153H412.433ZM382.06 -26.5153L396.649 -19.7239L411.237 -26.5164L396.649 -33.3074L382.061 -26.516L382.06 -26.5153ZM351.689 -26.5153L366.278 -19.7232L380.865 -26.5157L366.278 -33.3067L351.689 -26.5153ZM321.317 -26.5153L335.905 -19.7232L350.492 -26.5157L335.905 -33.3074L321.317 -26.516V-26.5153ZM290.946 -26.5153L305.534 -19.7232L320.121 -26.5157L305.534 -33.3074L290.946 -26.5153ZM260.574 -26.5153L275.162 -19.7232L289.75 -26.5157L275.162 -33.3067L260.574 -26.5153ZM230.203 -26.5153L244.791 -19.7232L259.378 -26.5157L244.791 -33.3067L230.203 -26.5153ZM199.831 -26.5153L214.419 -19.7232L229.006 -26.5157L214.418 -33.3067L199.831 -26.5153ZM169.46 -26.5153L184.049 -19.7239L198.635 -26.5164L184.049 -33.3074L169.46 -26.5153ZM139.089 -26.5153L153.675 -19.7232L168.263 -26.5157L153.675 -33.3067L139.089 -26.5153ZM108.716 -26.5153L123.304 -19.7232L137.891 -26.5146L123.304 -33.3071L108.716 -26.5153ZM17.6022 -26.5153L32.19 -19.7239L46.777 -26.5153L32.19 -33.3067L17.6022 -26.5153ZM63.1589 -33.5863L77.7472 -26.7949L92.335 -33.5863L77.7472 -40.3781L63.1589 -33.5863ZM32.7873 -33.5863L47.3738 -26.7942L61.9621 -33.5863L47.3738 -40.377L32.7873 -33.5863ZM2.41574 -33.5863L17.0045 -26.7949L31.5914 -33.5863L17.0045 -40.3777L2.41574 -33.5863ZM488.362 -33.5863L502.949 -26.7949L517.536 -33.5863L502.948 -40.3781L488.361 -33.5863H488.362ZM457.989 -33.5863L472.577 -26.7949L487.165 -33.5863L472.575 -40.3781L457.989 -33.5863ZM427.619 -33.5863L442.206 -26.7949L456.793 -33.5863L442.207 -40.3781L427.619 -33.5863ZM397.247 -33.5863L411.835 -26.7949L426.422 -33.5863L411.835 -40.3781L397.247 -33.5863ZM366.876 -33.5863L381.463 -26.7949L396.051 -33.5863L381.463 -40.3781L366.874 -33.5863H366.876ZM336.504 -33.5863L351.091 -26.7949L365.679 -33.5863L351.091 -40.3781L336.504 -33.5863ZM306.132 -33.5863L320.719 -26.7949L335.306 -33.5863L320.72 -40.3781L306.132 -33.5863ZM275.76 -33.5863L290.348 -26.7949L304.935 -33.5863L290.348 -40.3781L275.759 -33.5863H275.76ZM245.389 -33.5863L259.974 -26.7949L274.564 -33.5863L259.974 -40.3781L245.389 -33.5863ZM215.016 -33.5863L229.605 -26.7949L244.191 -33.5863L229.604 -40.3781L215.016 -33.5863ZM184.646 -33.5863L199.233 -26.7949L213.821 -33.5863L199.234 -40.3781L184.646 -33.5863ZM154.274 -33.5863L168.861 -26.7949L183.448 -33.5863L168.862 -40.3781L154.273 -33.5863H154.274ZM123.903 -33.5863L138.49 -26.7949L153.078 -33.5863L138.49 -40.3781L123.903 -33.5863ZM93.53 -33.5863L108.119 -26.7949L122.706 -33.5863L108.119 -40.3781L93.53 -33.5863ZM17.6044 -40.6555L32.1923 -33.8641L46.7801 -40.6555L32.1923 -47.4476L17.6044 -40.6555ZM473.18 -40.6555L487.767 -33.863L502.355 -40.6548L487.767 -47.4472L473.18 -40.6555ZM442.807 -40.6555L457.395 -33.8634L471.983 -40.6558L457.396 -47.4476L442.807 -40.6555ZM412.437 -40.6555L427.025 -33.8634L441.612 -40.6558L427.025 -47.4476L412.438 -40.6555H412.437ZM382.064 -40.6555L396.649 -33.8641L411.237 -40.6566L396.649 -47.4483L382.062 -40.6562L382.064 -40.6555ZM351.693 -40.6555L366.282 -33.8634L380.869 -40.6558L366.282 -47.4483L351.693 -40.6558V-40.6555ZM321.322 -40.6555L335.909 -33.8634L350.496 -40.6558L335.909 -47.4476L321.322 -40.6555ZM290.95 -40.6555L305.538 -33.8634L320.125 -40.6558L305.538 -47.4476L290.95 -40.6555ZM260.578 -40.6555L275.166 -33.8634L289.754 -40.6558L275.167 -47.4476L260.578 -40.6555ZM230.207 -40.6555L244.795 -33.8634L259.383 -40.6558L244.795 -47.4476L230.207 -40.6555ZM199.835 -40.6555L214.422 -33.8634L229.01 -40.6558L214.423 -47.4476L199.835 -40.6555ZM169.464 -40.6555L184.049 -33.8641L198.635 -40.6566L184.049 -47.4483L169.464 -40.6555ZM139.093 -40.6555L153.68 -33.8634L168.267 -40.6558L153.68 -47.4476L139.093 -40.6555ZM108.72 -40.6555L123.308 -33.8634L137.895 -40.6558L123.308 -47.4476L108.718 -40.6562L108.72 -40.6555ZM78.3489 -40.6555L92.9368 -33.8634L107.525 -40.6558L92.9368 -47.4476L78.3489 -40.6555ZM47.9773 -40.6555L62.5643 -33.8641L77.1495 -40.6566L62.5625 -47.4483L47.9747 -40.6558L47.9773 -40.6555ZM32.7913 -47.7257L47.3769 -40.9344L61.9648 -47.7268L47.3778 -54.5193L32.7891 -47.7275L32.7913 -47.7257ZM427.623 -47.7257L442.211 -40.9333L456.798 -47.7257L442.208 -54.5193L427.623 -47.7257ZM397.251 -47.7257L411.839 -40.9333L426.426 -47.7257L411.836 -54.5193L397.251 -47.7257ZM366.878 -47.7257L381.467 -40.9333L396.054 -47.7254L381.465 -54.5193L366.874 -47.7268L366.878 -47.7257ZM306.136 -47.7257L320.724 -40.9344L335.311 -47.7268L320.724 -54.5193L306.136 -47.7257ZM275.764 -47.7257L290.352 -40.9333L304.939 -47.7257L290.35 -54.5193L275.764 -47.7257ZM245.393 -47.7257L259.981 -40.9333L274.568 -47.7257L259.978 -54.5193L245.393 -47.7257ZM215.02 -47.7257L229.608 -40.9333L244.196 -47.7257L229.607 -54.5193L215.02 -47.7257ZM184.65 -47.7257L199.237 -40.9333L213.824 -47.7265L199.236 -54.5193L184.65 -47.7257ZM154.278 -47.7257L168.866 -40.9333L183.452 -47.7257L168.863 -54.5193L154.273 -47.7265L154.278 -47.7257ZM123.907 -47.7257L138.494 -40.9333L153.082 -47.7257L138.492 -54.5193L123.907 -47.7257ZM93.534 -47.7257L108.123 -40.9333L122.71 -47.7257L108.121 -54.5193L93.534 -47.7257ZM63.1638 -47.7257L77.7512 -40.9333L92.339 -47.7257L77.749 -54.5193L63.1611 -47.7275L63.1638 -47.7257ZM457.994 -47.7257L472.581 -40.9344L487.169 -47.7261L472.579 -54.5193L457.994 -47.7257ZM336.508 -47.7257L351.093 -40.9344L365.681 -47.7261L351.093 -54.5193L336.508 -47.7257ZM442.807 -54.7964L457.396 -48.0043L471.984 -54.7956L457.396 -61.5878L442.807 -54.7964ZM412.437 -54.7964L427.025 -48.0049L441.612 -54.7971L427.025 -61.5888L412.438 -54.7964H412.437ZM382.064 -54.7964L396.649 -48.0049L411.237 -54.7964L396.649 -61.5888L382.062 -54.7971L382.064 -54.7964ZM321.322 -54.7964L335.909 -48.0043L350.497 -54.7964L335.909 -61.5881L321.322 -54.7964ZM290.95 -54.7964L305.538 -48.0049L320.125 -54.7971L305.539 -61.5888L290.948 -54.7964H290.95ZM260.578 -54.7964L275.167 -48.0049L289.75 -54.7964L275.162 -61.5885L260.574 -54.7964H260.578ZM230.207 -54.7964L244.795 -48.0049L259.383 -54.7964L244.795 -61.5885L230.207 -54.7964ZM199.835 -54.7964L214.423 -48.0049L229.01 -54.7964L214.423 -61.5885L199.835 -54.7964ZM169.464 -54.7964L184.049 -48.0049L198.636 -54.7964L184.049 -61.5885L169.464 -54.7964ZM139.093 -54.7964L153.68 -48.0049L168.267 -54.7964L153.679 -61.5885L139.093 -54.7964ZM108.721 -54.7964L123.308 -48.0049L137.895 -54.7964L123.309 -61.5885L108.721 -54.7964ZM78.3489 -54.7964L92.9368 -48.0049L107.525 -54.7964L92.9376 -61.5885L78.3476 -54.7964H78.3489ZM47.9773 -54.7964L62.5652 -48.0049L77.1495 -54.7964L62.5625 -61.5885L47.9773 -54.7964ZM351.694 -54.7964L366.281 -48.0049L380.869 -54.7964L366.279 -61.5885L351.694 -54.7964ZM215.019 -61.8655L229.608 -55.0745L244.194 -61.8673L229.607 -68.6598L215.019 -61.8655ZM184.649 -61.8655L199.237 -55.0745L213.824 -61.8673L199.237 -68.6598L184.649 -61.8655ZM154.276 -61.8655L168.865 -55.0745L183.45 -61.8673L168.863 -68.6598L154.276 -61.8655ZM123.906 -61.8655L138.493 -55.0745L153.08 -61.8673L138.492 -68.6598L123.906 -61.8655ZM93.534 -61.8655L108.122 -55.0745L122.707 -61.8673L108.121 -68.6598L93.534 -61.8655ZM63.1625 -61.8655L77.7503 -55.0745L92.3368 -61.8673L77.749 -68.6598L63.1625 -61.8655ZM427.622 -61.8655L442.21 -55.0742L456.795 -61.8673L442.208 -68.6598L427.622 -61.8655ZM397.25 -61.8655L411.838 -55.0742L426.425 -61.8673L411.838 -68.6594L397.25 -61.8655ZM366.879 -61.8655L381.466 -55.0749L396.053 -61.8663L381.466 -68.6577L366.878 -61.8673L366.879 -61.8655ZM336.507 -61.8655L351.095 -55.0742L365.681 -61.8673L351.093 -68.6598L336.507 -61.8655ZM306.136 -61.8655L320.724 -55.0756L335.305 -61.8673L320.719 -68.6594L306.131 -61.8673L306.136 -61.8655ZM275.763 -61.8655L290.351 -55.0749L304.937 -61.8673L290.35 -68.6594L275.761 -61.8673L275.763 -61.8655ZM245.392 -61.8655L259.98 -55.0749L274.565 -61.8673L259.979 -68.6598L245.391 -61.8673L245.392 -61.8655ZM351.692 -68.9369L366.281 -62.1444L380.868 -68.9369L366.281 -75.7279L351.692 -68.9369ZM230.206 -68.9369L244.794 -62.1448L259.382 -68.9369L244.794 -75.7283L230.206 -68.9369ZM199.834 -68.9369L214.422 -62.1448L229.01 -68.9369L214.422 -75.7283L199.834 -68.9369ZM169.463 -68.9369L184.049 -62.1451L198.636 -68.9372L184.049 -75.7286L169.463 -68.9369ZM139.092 -68.9369L153.679 -62.1448L168.266 -68.9369L153.679 -75.7283L139.092 -68.9369ZM108.72 -68.9369L123.308 -62.1448L137.894 -68.9369L123.308 -75.7283L108.72 -68.9369ZM78.3489 -68.9369L92.9368 -62.1448L107.524 -68.9369L92.9368 -75.7283L78.3489 -68.9369ZM412.435 -68.9369L427.024 -62.1451L441.612 -68.9369L427.024 -75.7283L412.435 -68.9369ZM382.063 -68.9369L396.649 -62.1458L411.237 -68.9376L396.649 -75.729L382.061 -68.9376L382.063 -68.9369ZM321.321 -68.9369L335.909 -62.1451L350.495 -68.9369L335.909 -75.7279L321.321 -68.9369ZM290.95 -68.9369L305.537 -62.1451L320.124 -68.9369L305.538 -75.7283L290.948 -68.9376L290.95 -68.9369ZM260.578 -68.9369L275.165 -62.1455L289.75 -68.9376L275.163 -75.7286L260.575 -68.9372L260.578 -68.9369ZM215.018 -76.0071L229.604 -69.2154L244.191 -76.0078L229.604 -82.8003L215.015 -76.0089L215.018 -76.0071ZM184.648 -76.0071L199.236 -69.2154L213.824 -76.0075L199.236 -82.8003L184.648 -76.0071ZM154.275 -76.0071L168.863 -69.2154L183.45 -76.0078L168.864 -82.8003L154.273 -76.0071H154.275ZM123.904 -76.0071L138.489 -69.2154L153.075 -76.0078L138.489 -82.8003L123.901 -76.0089L123.904 -76.0071ZM93.5327 -76.0071L108.123 -69.2154L122.709 -76.0078L108.121 -82.8003L93.5327 -76.0071ZM397.249 -76.0071L411.836 -69.2157L426.425 -76.0078L411.836 -82.8003L397.249 -76.0071ZM366.876 -76.0071L381.465 -69.2154L396.053 -76.0068L381.465 -82.8003L366.874 -76.0078L366.876 -76.0071ZM336.506 -76.0071L351.093 -69.2154L365.681 -76.0068L351.093 -82.8003L336.505 -76.0078L336.506 -76.0071ZM306.133 -76.0071L320.724 -69.2154L335.311 -76.0068L320.721 -82.8003L306.133 -76.0078V-76.0071ZM275.762 -76.0071L290.35 -69.2154L304.937 -76.0068L290.35 -82.8003L275.762 -76.0078V-76.0071ZM245.391 -76.0071L259.979 -69.2154L274.566 -76.0068L259.979 -82.8003L245.391 -76.0082V-76.0071ZM199.833 -83.0777L214.421 -76.286L229.009 -83.0777L214.421 -89.8702L199.833 -83.0777ZM169.461 -83.0777L184.049 -76.286L198.636 -83.0777L184.049 -89.8692L169.461 -83.0777ZM139.09 -83.0777L153.678 -76.2863L168.265 -83.0777L153.678 -89.8695L139.09 -83.0777ZM108.719 -83.0777L123.307 -76.2863L137.894 -83.0777L123.307 -89.8695L108.719 -83.0777ZM382.062 -83.0777L396.649 -76.2863L411.236 -83.0777L396.649 -89.8702L382.062 -83.0777H382.062ZM351.691 -83.0777L366.28 -76.2863L380.867 -83.0777L366.28 -89.8702L351.691 -83.0777ZM321.318 -83.0777L335.907 -76.2863L350.494 -83.0777L335.907 -89.8702L321.318 -83.0777ZM290.949 -83.0777L305.536 -76.2863L320.123 -83.0777L305.537 -89.8692L290.949 -83.0777ZM260.577 -83.0777L275.164 -76.2863L289.75 -83.0777L275.162 -89.8702L260.577 -83.0777ZM230.205 -83.0777L244.792 -76.2863L259.38 -83.0777L244.792 -89.8702L230.205 -83.0777ZM154.273 -90.1484L168.862 -83.3562L183.451 -90.1484L168.864 -96.9405L154.273 -90.1484ZM123.903 -90.1484L138.49 -83.3562L153.08 -90.1484L138.493 -96.9405L123.905 -90.1484H123.903ZM366.876 -90.1484L381.463 -83.3562L396.05 -90.1484L381.463 -96.9405L366.878 -90.1484H366.876ZM336.503 -90.1484L351.091 -83.3562L365.681 -90.1484L351.093 -96.9405L336.505 -90.1484H336.503ZM306.132 -90.1484L320.719 -83.3562L335.309 -90.1484L320.724 -96.9401L306.134 -90.1484H306.132ZM275.76 -90.1484L290.348 -83.3562L304.937 -90.1484L290.35 -96.9405L275.761 -90.1484H275.76ZM245.389 -90.1484L259.977 -83.3562L274.566 -90.1484L259.979 -96.9405L245.392 -90.1484H245.389ZM215.016 -90.1484L229.605 -83.3562L244.194 -90.1484L229.607 -96.9405L215.018 -90.1484H215.016ZM184.646 -90.1484L199.234 -83.357L213.82 -90.1484L199.232 -96.9405L184.644 -90.1484H184.646ZM169.459 -97.219L184.047 -90.4265L198.635 -97.219L184.049 -104.009L169.459 -97.219ZM139.088 -97.219L153.677 -90.4265L168.264 -97.219L153.679 -104.009L139.09 -97.2179L139.088 -97.219ZM351.689 -97.219L366.277 -90.4272L380.864 -97.219L366.279 -104.01L351.689 -97.219ZM321.317 -97.219L335.905 -90.4272L350.493 -97.219L335.906 -104.011L321.317 -97.219ZM290.946 -97.219L305.534 -90.4272L320.12 -97.219L305.534 -104.011L290.946 -97.219ZM260.574 -97.219L275.162 -90.4272L289.75 -97.2179L275.164 -104.01L260.574 -97.219ZM230.203 -97.219L244.79 -90.4272L259.378 -97.219L244.79 -104.011L230.203 -97.219ZM199.831 -97.219L214.419 -90.4272L229.006 -97.219L214.42 -104.011L199.833 -97.2179L199.831 -97.219ZM154.273 -104.288L168.864 -97.4964L183.451 -104.289L168.864 -111.081L154.273 -104.288ZM336.504 -104.288L351.09 -97.4964L365.676 -104.288L351.09 -111.081L336.502 -104.29L336.504 -104.288ZM306.132 -104.288L320.724 -97.4964L335.312 -104.288L320.724 -111.081L306.132 -104.288ZM275.76 -104.288L290.35 -97.4964L304.937 -104.288L290.35 -111.081L275.76 -104.288ZM245.389 -104.288L259.979 -97.4964L274.566 -104.288L259.978 -111.081L245.389 -104.288ZM215.017 -104.288L229.604 -97.4964L244.191 -104.288L229.604 -111.081L215.016 -104.29L215.017 -104.288ZM184.646 -104.288L199.235 -97.4964L213.824 -104.288L199.236 -111.081L184.648 -104.288H184.646ZM321.317 -111.358L335.906 -104.567L350.493 -111.358L335.906 -118.15L321.317 -111.358ZM290.946 -111.358L305.534 -104.567L320.12 -111.358L305.534 -118.15L290.946 -111.358ZM260.574 -111.358L275.162 -104.567L289.75 -111.358L275.164 -118.15L260.574 -111.358ZM230.204 -111.358L244.79 -104.567L259.378 -111.358L244.79 -118.15L230.204 -111.358H230.204ZM199.831 -111.358L214.42 -104.567L229.007 -111.358L214.42 -118.15L199.831 -111.358ZM169.459 -111.358L184.049 -104.567L198.637 -111.358L184.049 -118.15L169.459 -111.358ZM306.134 -118.429L320.724 -111.637L335.309 -118.429L320.724 -125.22L306.134 -118.429ZM275.761 -118.429L290.349 -111.637L304.937 -118.429L290.349 -125.22L275.761 -118.429ZM245.391 -118.429L259.978 -111.638L274.566 -118.429L259.979 -125.22L245.391 -118.429ZM215.019 -118.429L229.606 -111.638L244.193 -118.429L229.606 -125.221L215.019 -118.429ZM184.648 -118.429L199.236 -111.638L213.824 -118.429L199.237 -125.221L184.648 -118.429H184.648ZM290.948 -125.499L305.536 -118.707L320.123 -125.499L305.536 -132.291L290.948 -125.499V-125.499ZM260.577 -125.499L275.164 -118.707L289.75 -125.499L275.165 -132.29L260.576 -125.499H260.577ZM230.205 -125.499L244.792 -118.707L259.38 -125.499L244.792 -132.29L230.205 -125.499ZM199.834 -125.499L214.422 -118.707L229.009 -125.499L214.421 -132.29L199.834 -125.499ZM245.392 -132.569L259.979 -125.777L274.567 -132.569L259.979 -139.362L245.392 -132.569ZM215.018 -132.569L229.604 -125.777L244.191 -132.569L229.604 -139.362L215.015 -132.57L215.018 -132.569ZM275.764 -132.569L290.349 -125.777L304.937 -132.569L290.35 -139.362L275.764 -132.569ZM260.577 -139.639L275.165 -132.847L289.75 -139.639L275.163 -146.432L260.577 -139.639ZM230.205 -139.639L244.792 -132.847L259.38 -139.639L244.793 -146.432L230.205 -139.639ZM245.391 -146.71L259.979 -139.919L274.567 -146.71L259.979 -153.501L245.391 -146.71Z" fill="url(#paint0_radial)"/>
<defs>
<radialGradient id="paint0_radial" cx="0" cy="0" r="1" gradientUnits="userSpaceOnUse" gradientTransform="translate(273.953 3.11815) rotate(96.1591) scale(74.4479 176.633)">
<stop stop-color="white"/>
<stop offset="1" stop-color="white" stop-opacity="0"/>
</radialGradient>
</defs>
</svg>
