<svg width="53.99999999999999" height="50" xmlns="http://www.w3.org/2000/svg">
 <defs>
  <linearGradient y2="0.54056" x2="0.43975" y1="0.46367" x1="0.98959" id="paint0_linear">
   <stop stop-color="#27ECB9"/>
   <stop stop-color="#26DAAD" offset="1"/>
  </linearGradient>
  <linearGradient y2="0.41862" x2="0.6464" y1="0.33658" x1="0.02416" id="paint1_linear">
   <stop stop-color="#108181"/>
   <stop stop-color="#0E7373" offset="1"/>
  </linearGradient>
  <linearGradient y2="0.43972" x2="0.60087" y1="0.55742" x1="0.00798" id="paint2_linear">
   <stop stop-color="#07A3A3"/>
   <stop stop-color="#0B9897" offset="1"/>
  </linearGradient>
  <linearGradient y2="0.65569" x2="0.97468" y1="0.43574" x1="0.00607" id="paint3_linear">
   <stop stop-color="#0FC1AB"/>
   <stop stop-color="#14BEA9" offset="1"/>
  </linearGradient>
 </defs>
 <g>
  <title>background</title>
  <rect fill="none" id="canvas_background" height="52" width="56" y="-1" x="-1"/>
 </g>
 <g>
  <title>Layer 1</title>
  <rect x="-0.9235" y="-0.93133" id="svg_1" fill="url(#paint0_linear)" transform="matrix(0.424084, 0.905623, -0.906988, 0.421156, 33.5967, 3.25)" rx="3.47039" height="6.94078" width="18.1309"/>
  <rect x="1.30512" y="-0.11072" id="svg_2" fill="url(#paint1_linear)" transform="matrix(0.424084, -0.905623, 0.906989, 0.421156, 13, 19.6802)" rx="3.47039" height="6.94078" width="18.1306"/>
  <rect x="-0.9235" y="-0.93133" id="svg_3" fill="url(#paint2_linear)" transform="matrix(0.424084, 0.905623, -0.906988, 0.421156, 24.0559, 3.25)" rx="3.47039" height="6.94078" width="18.1309"/>
  <rect x="1.30512" y="-0.11072" id="svg_4" fill="url(#paint3_linear)" transform="matrix(0.424084, -0.905623, 0.906989, 0.421156, 22.5327, 19.6802)" rx="3.47039" height="6.94078" width="18.1306"/>
  <path id="svg_5" fill="white" d="m0.94262,46.92843c-0.1436,0 -0.2611,-0.039 -0.35248,-0.117c-0.09139,-0.091 -0.13708,-0.208 -0.13708,-0.351l0,-12.6945c0,-0.143 0.04569,-0.26 0.13708,-0.351c0.09138,-0.091 0.20888,-0.1365 0.35248,-0.1365l1.54701,0c0.27416,0 0.46998,0.1235 0.58747,0.3705l3.77941,7.02l3.81855,-7.02c0.1306,-0.247 0.3264,-0.3705 0.5875,-0.3705l1.5274,0c0.1436,0 0.2611,0.0455 0.3525,0.1365c0.0914,0.091 0.1371,0.208 0.1371,0.351l0,12.6945c0,0.143 -0.0457,0.26 -0.1371,0.351c-0.0914,0.078 -0.2089,0.117 -0.3525,0.117l-1.6449,0c-0.1305,0 -0.2415,-0.0455 -0.3329,-0.1365c-0.0914,-0.091 -0.1371,-0.2015 -0.1371,-0.3315l0,-8.4435l-2.74152,5.2065c-0.16971,0.286 -0.39164,0.429 -0.6658,0.429l-0.80288,0c-0.27415,0 -0.49608,-0.143 -0.6658,-0.429l-2.74154,-5.2065l0,8.4435c0,0.13 -0.04569,0.2405 -0.13707,0.3315c-0.07833,0.091 -0.1893,0.1365 -0.33291,0.1365l-1.64492,0z"/>
  <path id="svg_6" fill="white" d="m19.04746,47.12343c-0.6658,0 -1.2794,-0.13 -1.8407,-0.39c-0.5483,-0.273 -0.9857,-0.637 -1.312,-1.092c-0.3134,-0.455 -0.47,-0.9555 -0.47,-1.5015c0,-0.884 0.359,-1.599 1.077,-2.145c0.718,-0.546 1.7037,-0.9165 2.957,-1.1115l2.6827,-0.39l0,-0.4095c0,-0.572 -0.1436,-1.001 -0.4308,-1.287c-0.2872,-0.286 -0.7506,-0.429 -1.3903,-0.429c-0.4308,0 -0.7833,0.0845 -1.0575,0.2535c-0.2611,0.156 -0.4699,0.312 -0.6266,0.468c-0.1567,0.169 -0.2611,0.2795 -0.3133,0.3315c-0.0522,0.156 -0.1502,0.234 -0.2938,0.234l-1.5078,0c-0.1175,0 -0.2219,-0.039 -0.3133,-0.117c-0.0784,-0.078 -0.1175,-0.182 -0.1175,-0.312c0.013,-0.325 0.1697,-0.6955 0.47,-1.1115c0.3133,-0.416 0.7898,-0.7735 1.4295,-1.0725c0.6397,-0.299 1.423,-0.4485 2.3499,-0.4485c1.5404,0 2.6632,0.3445 3.3681,1.0335c0.705,0.689 1.0575,1.5925 1.0575,2.7105l0,6.123c0,0.13 -0.0457,0.2405 -0.1371,0.3315c-0.0783,0.091 -0.1893,0.1365 -0.3329,0.1365l-1.5862,0c-0.1305,0 -0.2415,-0.0455 -0.3329,-0.1365c-0.0913,-0.091 -0.137,-0.2015 -0.137,-0.3315l0,-0.7605c-0.2872,0.416 -0.6985,0.7605 -1.2337,1.0335c-0.5222,0.26 -1.175,0.39 -1.9583,0.39zm0.6658,-1.8525c0.7181,0 1.3055,-0.234 1.7624,-0.702c0.457,-0.468 0.6854,-1.1505 0.6854,-2.0475l0,-0.4095l-1.9582,0.312c-0.7572,0.117 -1.3316,0.3055 -1.7233,0.5655c-0.3786,0.26 -0.5679,0.5785 -0.5679,0.9555c0,0.416 0.1763,0.741 0.5288,0.975c0.3525,0.234 0.7767,0.351 1.2728,0.351z"/>
  <path id="svg_7" fill="white" d="m27.74776,46.92843c-0.1306,0 -0.2415,-0.0455 -0.3329,-0.1365c-0.0914,-0.091 -0.1371,-0.2015 -0.1371,-0.3315l0,-9.1845c0,-0.13 0.0457,-0.2405 0.1371,-0.3315c0.0914,-0.104 0.2023,-0.156 0.3329,-0.156l1.5862,0c0.1436,0 0.2611,0.0455 0.3524,0.1365c0.0914,0.091 0.1371,0.208 0.1371,0.351l0,0.7995c0.3133,-0.416 0.705,-0.7345 1.175,-0.9555c0.483,-0.221 1.0313,-0.3315 1.6449,-0.3315l0.8029,0c0.1436,0 0.2545,0.0455 0.3329,0.1365c0.0914,0.078 0.137,0.1885 0.137,0.3315l0,1.404c0,0.13 -0.0456,0.2405 -0.137,0.3315c-0.0784,0.091 -0.1893,0.1365 -0.3329,0.1365l-1.5275,0c-0.6135,0 -1.0966,0.1755 -1.4491,0.5265c-0.3524,0.351 -0.5287,0.832 -0.5287,1.443l0,5.3625c0,0.13 -0.0457,0.2405 -0.1371,0.3315c-0.0913,0.091 -0.2088,0.1365 -0.3524,0.1365l-1.7037,0z"/>
  <path id="svg_8" fill="white" d="m39.04666,46.92843c-0.1958,0 -0.346,-0.039 -0.4504,-0.117c-0.1045,-0.091 -0.1893,-0.2145 -0.2546,-0.3705l-3.6619,-9.048l-0.0392,-0.1755c0,-0.117 0.0392,-0.2145 0.1175,-0.2925c0.0914,-0.091 0.1959,-0.1365 0.3134,-0.1365l1.5861,0c0.2481,0 0.4178,0.1235 0.5092,0.3705l2.6044,6.8445l2.6045,-6.8445c0.0392,-0.091 0.0979,-0.1755 0.1762,-0.2535c0.0914,-0.078 0.2024,-0.117 0.3329,-0.117l1.6058,0c0.1044,0 0.1958,0.0455 0.2742,0.1365c0.0913,0.078 0.137,0.1755 0.137,0.2925c0,0.078 -0.0065,0.1365 -0.0196,0.1755l-3.6815,9.048c-0.0652,0.156 -0.1501,0.2795 -0.2545,0.3705c-0.1045,0.078 -0.2546,0.117 -0.4504,0.117l-1.4491,0z"/>
  <path id="svg_9" fill="white" d="m47.17766,46.92843c-0.1306,0 -0.2415,-0.0455 -0.3329,-0.1365c-0.0914,-0.091 -0.1371,-0.2015 -0.1371,-0.3315l0,-12.909c0,-0.143 0.0457,-0.2535 0.1371,-0.3315c0.0914,-0.091 0.2023,-0.1365 0.3329,-0.1365l1.6253,0c0.1436,0 0.2546,0.0455 0.3329,0.1365c0.0914,0.078 0.1371,0.1885 0.1371,0.3315l0,12.909c0,0.13 -0.0457,0.2405 -0.1371,0.3315c-0.0783,0.091 -0.1893,0.1365 -0.3329,0.1365l-1.6253,0z"/>
  <path id="svg_10" fill="white" d="m52.26216,35.11143c-0.1305,0 -0.2415,-0.0455 -0.3329,-0.1365c-0.0914,-0.091 -0.1371,-0.2015 -0.1371,-0.3315l0,-1.404c0,-0.13 0.0457,-0.2405 0.1371,-0.3315c0.0914,-0.091 0.2024,-0.1365 0.3329,-0.1365l1.782,0c0.1306,0 0.2415,0.0455 0.3329,0.1365c0.1045,0.091 0.1567,0.2015 0.1567,0.3315l0,1.404c0,0.13 -0.0457,0.2405 -0.1371,0.3315c-0.0914,0.091 -0.2089,0.1365 -0.3525,0.1365l-1.782,0zm0.0783,11.817c-0.1305,0 -0.2415,-0.0455 -0.3329,-0.1365c-0.0913,-0.091 -0.137,-0.2015 -0.137,-0.3315l0,-9.204c0,-0.13 0.0457,-0.2405 0.137,-0.3315c0.0914,-0.091 0.2024,-0.1365 0.3329,-0.1365l1.6254,0c0.1436,0 0.2546,0.0455 0.3329,0.1365c0.0914,0.078 0.1371,0.1885 0.1371,0.3315l0,9.204c0,0.13 -0.0457,0.2405 -0.1371,0.3315c-0.0783,0.091 -0.1893,0.1365 -0.3329,0.1365l-1.6254,0z"/>
 </g>
</svg>